<svg width="47" height="47" viewBox="0 0 47 47" fill="none" xmlns="http://www.w3.org/2000/svg">
<circle cx="23.5" cy="23.5" r="22.5" fill="white" stroke="#F0F0F0" stroke-width="2"/>
<path d="M36 22.9982V25.0018H34.0128V27H32.0036V25.0018H30V22.9982H32.0036V21H34.0128V22.9982H36Z" fill="#3BB19B"/>
<path d="M28 24.1812C28 28.75 24.8715 32 20.1724 32C15.6393 32 12 28.4187 12 24C12 19.5813 15.6393 16 20.1724 16C22.2346 16 24.1309 16.7125 25.6441 18.0813L23.4222 20.1875C22.5539 19.3563 21.3599 18.9563 20.166 18.9563C17.3376 18.9563 15.0774 21.25 15.0774 23.9937C15.0774 26.7437 17.3312 29.0312 20.166 29.0312C22.3113 29.0312 24.4437 27.8 24.7885 25.5938H20.166V22.8438H27.8723C27.9553 23.2812 28 23.725 28 24.1812Z" fill="#3BB19B"/>
</svg>
