<svg width="45" height="45" viewBox="0 0 45 45" fill="none" xmlns="http://www.w3.org/2000/svg">
<path d="M22.264 22.216C22.264 23.064 22.1227 23.8507 21.84 24.576C21.5573 25.296 21.16 25.92 20.648 26.448C20.136 26.976 19.52 27.3893 18.8 27.688C18.08 27.9813 17.2827 28.128 16.408 28.128C15.5333 28.128 14.7333 27.9813 14.008 27.688C13.288 27.3893 12.6693 26.976 12.152 26.448C11.64 25.92 11.2427 25.296 10.96 24.576C10.6773 23.8507 10.536 23.064 10.536 22.216C10.536 21.368 10.6773 20.584 10.96 19.864C11.2427 19.1387 11.64 18.512 12.152 17.984C12.6693 17.456 13.288 17.0453 14.008 16.752C14.7333 16.4533 15.5333 16.304 16.408 16.304C17.2827 16.304 18.08 16.4533 18.8 16.752C19.52 17.0507 20.136 17.464 20.648 17.992C21.16 18.5147 21.5573 19.1387 21.84 19.864C22.1227 20.584 22.264 21.368 22.264 22.216ZM20.056 22.216C20.056 21.5813 19.9707 21.0133 19.8 20.512C19.6347 20.0053 19.3947 19.576 19.08 19.224C18.7653 18.872 18.3813 18.6027 17.928 18.416C17.48 18.2293 16.9733 18.136 16.408 18.136C15.8427 18.136 15.3333 18.2293 14.88 18.416C14.4267 18.6027 14.04 18.872 13.72 19.224C13.4053 19.576 13.1627 20.0053 12.992 20.512C12.8213 21.0133 12.736 21.5813 12.736 22.216C12.736 22.8507 12.8213 23.4213 12.992 23.928C13.1627 24.4293 13.4053 24.856 13.72 25.208C14.04 25.5547 14.4267 25.8213 14.88 26.008C15.3333 26.1947 15.8427 26.288 16.408 26.288C16.9733 26.288 17.48 26.1947 17.928 26.008C18.3813 25.8213 18.7653 25.5547 19.08 25.208C19.3947 24.856 19.6347 24.4293 19.8 23.928C19.9707 23.4213 20.056 22.8507 20.056 22.216ZM26.1889 23.48V28H24.0369V16.432H27.5649C28.3542 16.432 29.0289 16.5147 29.5889 16.68C30.1542 16.84 30.6155 17.0667 30.9729 17.36C31.3355 17.6533 31.5995 18.0053 31.7649 18.416C31.9355 18.8213 32.0209 19.2693 32.0209 19.76C32.0209 20.1493 31.9622 20.5173 31.8449 20.864C31.7329 21.2107 31.5675 21.5253 31.3489 21.808C31.1355 22.0907 30.8689 22.3387 30.5489 22.552C30.2342 22.7653 29.8742 22.936 29.4689 23.064C29.7409 23.2187 29.9755 23.44 30.1729 23.728L33.0689 28H31.1329C30.9462 28 30.7862 27.9627 30.6529 27.888C30.5249 27.8133 30.4155 27.7067 30.3249 27.568L27.8929 23.864C27.8022 23.7253 27.7009 23.6267 27.5889 23.568C27.4822 23.5093 27.3222 23.48 27.1089 23.48H26.1889ZM26.1889 21.936H27.5329C27.9382 21.936 28.2902 21.8853 28.5889 21.784C28.8929 21.6827 29.1409 21.544 29.3329 21.368C29.5302 21.1867 29.6769 20.9733 29.7729 20.728C29.8689 20.4827 29.9169 20.2133 29.9169 19.92C29.9169 19.3333 29.7222 18.8827 29.3329 18.568C28.9489 18.2533 28.3595 18.096 27.5649 18.096H26.1889V21.936Z" fill="#C0C0C0"/>
</svg>
